<?xml version="1.0"?>

<!DOCTYPE svg PUBLIC '-//W3C//DTD SVG 1.0//EN' 'http://www.w3.org/TR/2001/REC-SVG-20010904/DTD/svg10.dtd'>
<svg fill-opacity="1" xmlns:xlink="http://www.w3.org/1999/xlink" color-rendering="auto" color-interpolation="auto" text-rendering="auto" stroke="black" stroke-linecap="square" stroke-miterlimit="10" shape-rendering="auto" stroke-opacity="1" fill="black" stroke-dasharray="none" font-weight="normal" stroke-width="1" xmlns="http://www.w3.org/2000/svg" font-family="&apos;Dialog&apos;" font-style="normal" stroke-linejoin="miter" font-size="12" stroke-dashoffset="0" image-rendering="auto">
  <!--Unicode Character 'CONTOUR INTEGRAL' (U+222E)-->
  <defs id="genericDefs" />
  <g>
    <g>
      <path d="M132.1875 278.2969 Q132.1875 298.125 120.5156 314.2969 Q108.8438 330.4688 90.4219 336.7969 Q89.7188 397.125 82.125 426.6562 Q77.9062 443.3906 67.1484 453.5859 Q56.3906 463.7812 42.8906 463.7812 Q32.0625 463.7812 25.1016 457.7344 Q18.1406 451.6875 18.1406 441.9844 Q18.1406 434.3906 22.6406 429.2578 Q27.1406 424.125 33.75 424.125 Q40.2188 424.125 44.5781 428.9766 Q48.9375 433.8281 48.9375 440.5781 Q48.9375 442.9688 48.2344 445.9219 Q47.5312 448.875 47.5312 450 Q47.5312 454.0781 50.625 454.0781 Q58.6406 454.0781 64.6172 443.9531 Q70.5938 433.8281 70.5938 418.6406 Q70.5938 409.0781 62.1562 339.4688 Q39.7969 336.2344 24.6797 318.7969 Q9.5625 301.3594 9.5625 278.2969 Q9.5625 258.3281 21.5156 242.1562 Q33.3281 226.4062 51.8906 220.2188 L51.8906 209.25 Q51.8906 166.2188 56.25 142.4531 Q60.75 117.5625 71.5781 104.4844 Q82.4062 91.4062 99.1406 91.4062 Q109.6875 91.4062 117.3516 97.875 Q125.0156 104.3438 125.0156 113.3438 Q125.0156 121.2188 120.7969 126.3516 Q116.5781 131.4844 109.6875 131.4844 Q102.9375 131.4844 98.1562 127.125 Q93.375 122.7656 93.375 115.875 Q93.375 113.4844 94.2188 110.0391 Q95.0625 106.5938 95.0625 105.3281 Q95.0625 101.25 91.5469 101.25 Q85.5 101.25 80.2969 108.1406 Q71.4375 119.9531 71.4375 140.7656 Q71.4375 150.0469 81.2812 217.8281 Q103.2188 221.7656 117.7031 238.7812 Q132.1875 255.7969 132.1875 278.2969 ZM120.9375 278.2969 Q120.9375 260.8594 110.3203 247.2891 Q99.7031 233.7188 82.9688 229.6406 Q90.4219 282.375 90.4219 318.9375 L90.4219 324.7031 Q104.2031 318.7969 112.5703 306.2109 Q120.9375 293.625 120.9375 278.2969 ZM61.0312 327.6562 Q60.0469 322.1719 58.7812 311.7656 Q53.8594 273.5156 52.4531 232.3125 Q38.25 237.5156 29.4609 250.1016 Q20.6719 262.6875 20.6719 278.2969 Q20.6719 296.2969 32.1328 310.2188 Q43.5938 324.1406 61.0312 327.6562 Z" stroke="none" />
    </g>
  </g>
</svg>
