<?xml version="1.0"?>

<!DOCTYPE svg PUBLIC '-//W3C//DTD SVG 1.0//EN' 'http://www.w3.org/TR/2001/REC-SVG-20010904/DTD/svg10.dtd'>
<svg fill-opacity="1" xmlns:xlink="http://www.w3.org/1999/xlink" color-rendering="auto" color-interpolation="auto" text-rendering="auto" stroke="black" stroke-linecap="square" stroke-miterlimit="10" shape-rendering="auto" stroke-opacity="1" fill="black" stroke-dasharray="none" font-weight="normal" stroke-width="1" xmlns="http://www.w3.org/2000/svg" font-family="&apos;Dialog&apos;" font-style="normal" stroke-linejoin="miter" font-size="12" stroke-dashoffset="0" image-rendering="auto">
  <!--Unicode Character 'DAGGER KNIFE' (U+1F5E1)-->
  <defs id="genericDefs" />
  <g>
    <g>
      <path d="M113.0625 170.2969 Q113.0625 177.6094 108.0703 182.1797 Q103.0781 186.75 95.7656 186.75 Q88.4531 186.75 83.8125 181.8984 Q79.1719 177.0469 79.1719 169.7344 Q79.1719 162.5625 84.1641 157.9219 Q89.1562 153.2812 96.4688 153.2812 Q103.6406 153.2812 108.3516 158.1328 Q113.0625 162.9844 113.0625 170.2969 ZM121.0781 171 Q121.0781 179.8594 115.5938 186.75 Q111.7969 184.2188 107.2969 184.9219 Q115.0312 179.4375 115.0312 170.0156 Q115.0312 161.8594 109.8281 156.375 Q104.625 150.8906 96.4688 150.8906 Q88.1719 150.8906 82.4766 156.3047 Q76.7812 161.7188 76.7812 169.875 Q76.7812 178.0312 81.8438 183.5859 Q86.9062 189.1406 94.9219 189.1406 Q96.6094 189.1406 99.4219 188.5781 Q94.5 192.2344 94.7812 196.7344 Q84.0938 196.7344 77.0625 189.0703 Q70.0312 181.4062 70.0312 170.5781 Q70.0312 159.6094 77.6953 152.4375 Q85.3594 145.2656 96.4688 145.2656 Q107.0156 145.2656 114.0469 152.8594 Q121.0781 160.4531 121.0781 171 ZM193.0781 231.6094 Q193.0781 233.1562 192.0938 234.1406 Q190.6875 234 189.4219 234 Q187.0312 234 182.8125 234.7031 Q175.7812 242.4375 170.1562 245.1094 L104.2031 275.9062 Q100.9688 277.4531 96.1875 277.875 Q88.4531 278.7188 88.0312 278.8594 Q87.0469 279 84.7266 282.375 Q82.4062 285.75 81.1406 285.75 Q79.4531 285.75 77.3438 284.0625 Q75.2344 282.375 75.2344 280.8281 Q75.2344 276.3281 82.5469 271.4062 Q89.2969 266.9062 94.0781 266.9062 Q98.1562 266.9062 101.3906 269.1562 Q112.9219 262.9688 127.4062 254.8125 Q127.125 253.9688 122.4844 251.7188 L119.9531 252.8438 Q95.7656 214.7344 95.7656 199.9688 Q95.7656 194.7656 99.6328 191.1797 Q103.5 187.5938 108.7031 187.5938 Q114.0469 187.5938 117.9844 191.1094 Q120.7969 193.6406 126.7734 202.4297 Q132.75 211.2188 134.0156 214.7344 Q136.6875 224.0156 142.0312 242.5781 L140.0625 243.4219 Q140.0625 244.2656 139.5 245.9531 Q138.9375 247.6406 138.9375 248.625 Q138.9375 249.8906 140.7656 249.8906 Q146.1094 249.8906 166.6406 238.7812 Q167.2031 232.0312 173.8125 228.2344 Q179.2969 224.8594 186.6094 224.8594 Q193.0781 224.8594 193.0781 231.6094 ZM218.1094 390.7969 Q218.1094 401.4844 213.0469 420.3281 Q196.0312 411.3281 188.0156 403.7344 Q177.1875 393.4688 124.5938 284.3438 Q129.0938 281.25 129.0938 276.6094 Q129.0938 272.9531 126.1406 268.3125 L151.3125 256.0781 Q153.8438 260.8594 158.625 265.2188 L159.75 265.3594 Q161.4375 265.5 167.3438 264.5156 Q182.1094 296.7188 196.7344 328.7812 Q218.1094 377.7188 218.1094 390.7969 ZM209.3906 413.8594 L147.5156 282.5156 L139.3594 283.3594 L135.5625 289.9688 Q163.8281 345.375 191.5312 396.4219 Q197.8594 401.7656 209.3906 413.8594 Z" stroke="none" />
    </g>
  </g>
</svg>
