<?xml version="1.0"?>

<!DOCTYPE svg PUBLIC '-//W3C//DTD SVG 1.0//EN' 'http://www.w3.org/TR/2001/REC-SVG-20010904/DTD/svg10.dtd'>
<svg fill-opacity="1" xmlns:xlink="http://www.w3.org/1999/xlink" color-rendering="auto" color-interpolation="auto" text-rendering="auto" stroke="black" stroke-linecap="square" stroke-miterlimit="10" shape-rendering="auto" stroke-opacity="1" fill="black" stroke-dasharray="none" font-weight="normal" stroke-width="1" xmlns="http://www.w3.org/2000/svg" font-family="&apos;Dialog&apos;" font-style="normal" stroke-linejoin="miter" font-size="12" stroke-dashoffset="0" image-rendering="auto">
  <!--Unicode Character 'OPEN BOOK' (U+1F4D6)-->
  <defs id="genericDefs" />
  <g>
    <g>
      <path d="M289.4062 399.6562 Q247.9219 378 204.6094 378 Q182.5312 378 166.6406 382.9219 Q165.9375 383.2031 157.9219 386.1562 Q151.0312 388.8281 150.0469 388.8281 Q150.6094 388.8281 133.875 383.625 Q117.1406 378.4219 93.7969 378.4219 Q51.3281 378.4219 11.5312 399.6562 L11.5312 186.3281 Q41.4844 169.4531 77.625 169.4531 Q104.9062 169.4531 128.5312 177.75 Q129.0938 177.8906 140.0625 182.3906 Q149.3438 186.1875 150.4688 186.1875 Q150.4688 186.1875 161.8594 181.8281 Q188.1562 171.7031 219.9375 171.7031 Q255.7969 171.7031 289.4062 186.3281 L289.4062 399.6562 ZM280.4062 369.8438 L280.4062 192.0938 Q252 180.7031 220.2188 180.7031 Q185.9062 180.7031 154.5469 193.5 L154.5469 371.6719 Q186.1875 357.75 219.9375 357.75 Q253.125 357.75 280.4062 369.8438 ZM280.4062 386.5781 L280.4062 378.9844 Q255.9375 367.1719 222.8906 367.1719 Q199.5469 367.1719 175.5 374.2031 Q192.0938 370.8281 209.6719 370.8281 Q245.5312 370.8281 280.4062 386.5781 ZM146.3906 371.6719 L146.3906 193.5 Q112.7812 178.875 78.0469 178.875 Q46.4062 178.875 19.125 191.25 L19.125 369.8438 Q45.2812 357.75 78.0469 357.75 Q110.8125 357.75 146.3906 371.6719 ZM125.5781 374.625 Q97.875 367.1719 76.5 367.1719 Q43.7344 367.1719 19.2656 378.9844 Q19.125 381.7969 19.125 382.3594 Q19.125 383.0625 19.2656 384.4688 Q19.2656 385.875 19.2656 386.5781 Q53.1562 370.8281 89.7188 370.8281 Q108.7031 370.8281 125.5781 374.625 ZM261.4219 216.8438 Q258.8906 216.1406 253.9688 215.0156 L253.9688 206.0156 Q256.5 206.7188 261.4219 207.9844 L261.4219 216.8438 ZM248.3438 214.0312 Q232.4531 211.9219 212.7656 211.9219 L212.7656 202.9219 L234.5625 202.9219 Q237.375 202.9219 248.3438 205.1719 L248.3438 214.0312 ZM261.4219 241.1719 Q259.7344 240.4688 253.9688 239.3438 L253.9688 230.4844 Q256.7812 230.9062 261.4219 231.8906 L261.4219 241.1719 ZM248.3438 238.0781 Q240.0469 236.5312 226.4062 235.6875 L226.4062 226.4062 L248.3438 229.0781 L248.3438 238.0781 ZM207.7031 211.7812 L185.3438 215.0156 L185.3438 206.5781 Q198.2812 203.3438 202.6406 203.3438 L207.7031 203.3438 L207.7031 211.7812 ZM261.4219 264.6562 L260.0156 264.6562 Q257.625 264.6562 254.1094 263.6719 Q249.3281 262.2656 248.2031 262.125 Q240.8906 261.4219 226.4062 259.7344 L226.4062 250.7344 L261.4219 255.7969 L261.4219 264.6562 ZM221.3438 235.2656 L199.6875 236.6719 L199.6875 227.8125 Q216.4219 226.4062 217.125 226.4062 Q217.5469 226.4062 221.3438 226.8281 L221.3438 235.2656 ZM261.4219 289.5469 Q258.8906 288.8438 253.9688 287.1562 L253.9688 278.2969 Q256.5 279 261.4219 280.5469 L261.4219 289.5469 ZM180.1406 216.2812 Q177.6094 216.9844 172.2656 218.1094 L172.2656 209.6719 Q172.5469 209.5312 180.1406 207.4219 L180.1406 216.2812 ZM248.3438 285.8906 Q240.3281 285.8906 240.3281 285.8906 L240.3281 277.0312 L248.3438 277.0312 L248.3438 285.8906 ZM221.3438 259.7344 L212.7656 259.7344 L212.7656 250.7344 L221.3438 250.7344 L221.3438 259.7344 ZM234.8438 284.3438 Q228.7969 284.0625 226.4062 284.3438 L226.4062 275.3438 Q234.8438 275.3438 234.8438 275.3438 L234.8438 284.3438 ZM261.4219 313.875 Q259.7344 313.1719 253.9688 312.0469 L253.9688 303.1875 Q256.5 303.6094 261.4219 304.4531 L261.4219 313.875 ZM193.7812 237.5156 L172.2656 242.5781 L172.2656 233.7188 Q185.0625 230.3438 193.7812 228.6562 L193.7812 237.5156 ZM248.3438 310.6406 Q245.6719 310.2188 240.3281 309.375 L240.3281 300.375 Q242.4375 300.7969 248.3438 301.7812 L248.3438 310.6406 ZM221.2031 283.7812 Q219.375 283.5 212.7656 283.7812 L212.7656 275.2031 L221.2031 275.2031 L221.2031 283.7812 ZM207.7031 260.1562 Q188.8594 262.125 172.2656 267.3281 L172.2656 258.4688 Q191.9531 251.1562 207.7031 251.1562 L207.7031 260.1562 ZM261.4219 337.7812 L260.0156 337.7812 Q257.625 337.7812 254.1094 336.6562 Q249.3281 335.1094 248.2031 334.8281 Q239.625 333.1406 226.4062 332.2969 L226.4062 323.4375 L230.0625 323.4375 Q236.6719 323.4375 261.4219 328.9219 L261.4219 337.7812 ZM234.8438 308.9531 L232.4531 308.9531 Q230.2031 308.9531 225.9141 308.5312 Q221.625 308.1094 219.375 308.1094 Q216.1406 308.1094 209.5312 308.7422 Q202.9219 309.375 199.6875 309.375 L199.6875 300.5156 Q209.9531 299.1094 222.8906 299.1094 Q228.7969 299.1094 233.8594 299.6719 L234.8438 299.25 L234.8438 308.9531 ZM126.4219 220.5 Q123.6094 219.7969 117.9844 218.1094 L117.9844 209.25 L119.9531 209.25 Q120.9375 209.25 126.4219 211.5 L126.4219 220.5 ZM207.7031 284.4844 Q199.4062 284.7656 189.1406 287.0156 Q188.8594 287.1562 180.7031 289.4062 Q175.6406 290.8125 172.125 290.8125 L172.125 282.375 Q175.6406 280.6875 187.8047 278.1562 Q199.9688 275.625 204.0469 275.625 L207.7031 275.625 L207.7031 284.4844 ZM112.5 216.8438 Q104.7656 215.7188 89.1562 213.1875 L89.1562 204.3281 Q104.625 206.1562 112.5 207.9844 L112.5 216.8438 ZM193.7812 311.2031 L185.3438 311.2031 L185.3438 303.1875 Q188.2969 302.625 193.7812 301.7812 L193.7812 311.2031 ZM221.3438 331.875 Q214.1719 332.2969 199.6875 333.7031 L199.6875 324.8438 Q210.5156 323.4375 211.2188 323.4375 L221.3438 323.4375 L221.3438 331.875 ZM126.4219 244.8281 Q118.2656 241.875 103.6406 239.3438 L103.6406 230.4844 Q111.2344 232.1719 126.4219 235.9688 L126.4219 244.8281 ZM180.1406 312.8906 Q177.3281 314.0156 172.2656 315.7031 L172.2656 306.8438 Q174.0938 306.4219 180.1406 304.4531 L180.1406 312.8906 ZM83.1094 213.1875 L64.125 213.1875 Q61.1719 213.1875 55.6172 214.5234 Q50.0625 215.8594 47.1094 215.8594 L47.1094 207 Q75.9375 203.7656 75.375 203.7656 L83.1094 203.7656 L83.1094 213.1875 ZM97.5938 238.9219 Q83.9531 237.6562 74.6719 237.6562 L74.6719 228.6562 L88.3125 228.6562 Q88.3125 228.6562 97.5938 230.0625 L97.5938 238.9219 ZM193.7812 334.5469 Q182.8125 336.7969 172.2656 340.0312 L172.2656 331.1719 L191.25 325.6875 Q191.8125 325.6875 193.7812 325.6875 L193.7812 334.5469 ZM126.4219 269.1562 Q104.3438 262.6875 89.1562 262.8281 L89.1562 253.5469 Q109.6875 255.0938 126.4219 260.2969 L126.4219 269.1562 ZM42.0469 217.2656 Q39.6562 217.9688 34.5938 219.0938 L34.5938 210.2344 Q37.125 209.5312 42.0469 208.4062 L42.0469 217.2656 ZM69.1875 237.5156 L47.1094 240.75 L47.1094 231.8906 L69.1875 228.6562 L69.1875 237.5156 ZM126.4219 293.625 Q102.9375 287.2969 89.1562 286.7344 L89.1562 277.875 L91.5469 277.875 Q100.125 277.875 126.4219 284.2031 L126.4219 293.625 ZM83.1094 262.4062 L74.6719 262.4062 L74.6719 252.9844 L83.1094 252.9844 L83.1094 262.4062 ZM126.4219 318.375 Q121.9219 316.8281 117.9844 316.125 L117.9844 306.7031 L126.4219 309.5156 L126.4219 318.375 ZM42.0469 241.5938 Q38.5312 242.2969 34.5938 243.8438 L34.5938 234.9844 Q36.9844 234.2812 41.625 232.7344 L42.0469 241.5938 ZM112.3594 309.2344 Q112.3594 311.7656 111.9375 314.7188 Q109.5469 313.875 103.6406 312.8906 L103.6406 304.0312 L112.0781 305.4375 Q112.3594 307.125 112.3594 309.2344 ZM83.1094 286.3125 L74.6719 286.3125 L74.6719 277.4531 L83.1094 277.4531 L83.1094 286.3125 ZM69.1875 262.4062 Q56.25 262.9688 44.7188 265.9219 Q35.5781 268.3125 34.4531 268.3125 L34.4531 259.4531 Q47.3906 255.0938 69.1875 252.9844 L69.1875 262.4062 ZM69.1875 286.7344 L61.1719 286.7344 L61.1719 277.875 L69.1875 277.875 L69.1875 286.7344 ZM126.4219 342.7031 Q122.7656 341.2969 103.6406 337.7812 L103.6406 328.7812 Q106.0312 328.7812 106.0312 328.7812 L126.4219 333.8438 L126.4219 342.7031 ZM97.5938 312.0469 L93.6562 312.0469 Q92.6719 312.0469 90.7734 311.625 Q88.875 311.2031 87.8906 311.2031 L61.1719 311.2031 L61.1719 302.9062 L97.5938 302.9062 L97.5938 312.0469 ZM55.125 288.1406 Q50.625 288.9844 47.1094 289.5469 L47.1094 280.5469 Q49.9219 279.8438 55.125 279.2812 L55.125 288.1406 ZM97.5938 336.9375 L96.1875 336.9375 Q96.75 336.9375 74.6719 335.5312 L74.6719 326.5312 L85.2188 326.5312 Q85.5 326.5312 97.5938 327.9375 L97.5938 336.9375 ZM42.0469 290.8125 Q39.5156 291.5156 34.5938 292.6406 L34.5938 283.7812 Q37.125 283.0781 42.0469 281.9531 L42.0469 290.8125 ZM55.125 312.4688 Q52.4531 313.1719 47.1094 314.2969 L47.1094 305.4375 Q49.7812 304.7344 55.125 303.6094 L55.125 312.4688 ZM42.0469 315.7031 Q41.625 315.8438 34.4531 316.9688 L34.4531 308.5312 Q36.9844 307.8281 42.0469 306.2812 L42.0469 315.7031 ZM69.1875 335.5312 Q46.4062 338.4844 34.5938 341.8594 L34.5938 333 Q42.4688 330.0469 69.1875 326.6719 L69.1875 335.5312 Z" stroke="none" />
    </g>
  </g>
</svg>
