<?xml version="1.0"?>

<!DOCTYPE svg PUBLIC '-//W3C//DTD SVG 1.0//EN' 'http://www.w3.org/TR/2001/REC-SVG-20010904/DTD/svg10.dtd'>
<svg fill-opacity="1" xmlns:xlink="http://www.w3.org/1999/xlink" color-rendering="auto" color-interpolation="auto" text-rendering="auto" stroke="black" stroke-linecap="square" stroke-miterlimit="10" shape-rendering="auto" stroke-opacity="1" fill="black" stroke-dasharray="none" font-weight="normal" stroke-width="1" xmlns="http://www.w3.org/2000/svg" font-family="&apos;Dialog&apos;" font-style="normal" stroke-linejoin="miter" font-size="12" stroke-dashoffset="0" image-rendering="auto">
  <!--Unicode Character 'PERSONAL COMPUTER' (U+1F4BB)-->
  <defs id="genericDefs" />
  <g>
    <g>
      <path d="M298.4062 383.3438 Q296.4375 385.7344 295.3125 385.7344 L269.1562 385.7344 Q263.8125 385.7344 260.5781 381.7969 Q258.75 379.5469 252.5625 367.3828 Q246.375 355.2188 246.375 353.3906 Q246.375 350.5781 249.0469 347.0625 Q251.7188 343.5469 254.5312 342.8438 Q256.2188 342.4219 265.2188 342.4219 L271.8281 342.4219 Q273.375 342.4219 274.7812 342.8438 Q278.0156 343.8281 288.2109 354.1641 Q298.4062 364.5 298.4062 367.1719 L298.4062 383.3438 ZM237.9375 294.3281 L143.7188 294.3281 Q145.4062 309.7969 145.4062 309.9375 Q145.4062 311.4844 146.8125 312.4688 Q149.2031 312.8906 194.7656 322.0312 L194.7656 329.4844 L166.2188 332.2969 Q151.875 333.7031 151.875 333.7031 L113.0625 333.7031 Q113.0625 333.7031 98.7188 332.2969 L70.1719 329.4844 L70.3125 325.9688 L70.1719 322.0312 L117.9844 312.1875 Q120.375 299.6719 120.375 293.9062 L26.8594 293.9062 L26.8594 153.2812 L237.9375 153.2812 L237.9375 294.3281 ZM252.9844 386.8594 Q252.2812 390.0938 251.0156 396.5625 L13.5 396.5625 Q12.6562 394.1719 11.5312 387.4219 L32.7656 342.1406 L231.75 342.1406 L252.9844 386.8594 ZM274.0781 352.9688 L274.0781 348.8906 Q274.0781 347.9062 271.5469 344.6719 Q270.9844 344.5312 269.7188 344.0391 Q268.4531 343.5469 267.75 343.5469 Q267.75 343.5469 263.25 345.0938 Q265.0781 347.7656 269.0156 352.9688 L274.0781 352.9688 ZM222.8906 277.4531 L222.8906 166.3594 L41.625 166.3594 L41.625 277.4531 L222.8906 277.4531 ZM235.125 373.9219 L225.1406 350.7188 L39.7969 350.7188 L29.3906 373.9219 L235.125 373.9219 Z" stroke="none" />
    </g>
  </g>
</svg>
